<mxfile host="app.diagrams.net" modified="2024-04-19T07:59:52.058Z" agent="Mozilla/5.0 (X11; Linux x86_64) AppleWebKit/537.36 (KHTML, like Gecko) Chrome/119.0.0.0 Safari/537.36" version="24.2.5" etag="brLRX-P0cv242yX6ZkXc" type="github">
  <diagram name="Page-1" id="suTiiEdksLUkJC8LkdN8">
    <mxGraphModel>
      <root>
        <mxCell id="0" />
        <mxCell id="1" parent="0" />
      </root>
    </mxGraphModel>
  </diagram>
</mxfile>
